<?xml version="1.0" standalone="no"?>
<!DOCTYPE svg PUBLIC "-//W3C//DTD SVG 20010904//EN"
 "http://www.w3.org/TR/2001/REC-SVG-20010904/DTD/svg10.dtd">
<svg version="1.0" xmlns="http://www.w3.org/2000/svg"
 width="800.000000pt" height="800.000000pt" viewBox="0 0 800.000000 800.000000"
 preserveAspectRatio="xMidYMid meet">
<metadata>
Created by potrace 1.14, written by Peter Selinger 2001-2017
</metadata>
<g transform="translate(0.000000,800.000000) scale(0.100000,-0.100000)"
fill="#000000" stroke="none">
<path d="M3720 7829 c-88 -13 -99 -15 -106 -22 -4 -4 -14 -7 -23 -7 -20 0
-125 -43 -129 -52 -2 -5 -10 -8 -18 -8 -8 0 -14 -4 -14 -10 0 -5 -4 -10 -10
-10 -21 0 -132 -123 -160 -178 -31 -62 -65 -186 -56 -208 3 -7 1 -16 -5 -20
-7 -4 -6 -10 1 -19 6 -8 7 -16 2 -19 -5 -3 -8 -17 -6 -32 2 -21 -1 -25 -17
-21 -10 3 -19 2 -19 -2 0 -4 -6 -8 -12 -9 -7 0 -22 -3 -33 -6 -11 -3 -38 -10
-60 -17 -22 -6 -48 -11 -57 -12 -10 -1 -18 -4 -18 -8 0 -3 -19 -11 -42 -18
-87 -26 -398 -160 -418 -181 -8 -9 -64 -39 -92 -51 -16 -6 -28 -15 -28 -20 0
-5 -6 -9 -13 -9 -15 0 -200 -119 -205 -132 -2 -4 -8 -8 -13 -8 -6 0 -22 -11
-37 -25 -15 -14 -32 -25 -39 -25 -6 0 -13 -3 -15 -7 -1 -5 -25 -26 -53 -48
-27 -22 -51 -43 -53 -47 -2 -5 -8 -8 -13 -8 -12 0 -20 -7 -224 -208 -99 -98
-196 -198 -215 -222 -19 -25 -47 -58 -62 -75 -15 -16 -28 -36 -28 -42 0 -7 -3
-13 -8 -13 -4 0 -25 -27 -47 -60 -22 -33 -43 -60 -47 -60 -5 0 -8 -7 -8 -15 0
-8 -4 -15 -10 -15 -5 0 -10 -6 -10 -13 0 -7 -9 -23 -20 -35 -11 -12 -20 -25
-20 -30 0 -4 -9 -18 -20 -30 -12 -12 -18 -22 -15 -22 3 0 -11 -26 -31 -57 -45
-70 -154 -288 -154 -307 0 -8 -5 -16 -11 -18 -5 -2 -11 -10 -13 -18 -1 -8 -9
-31 -18 -50 -16 -34 -60 -155 -92 -250 -20 -60 -67 -229 -71 -257 -2 -11 -6
-31 -10 -42 -9 -29 -17 -79 -19 -118 0 -18 -4 -33 -7 -33 -3 0 -6 -6 -6 -12 0
-7 -3 -31 -7 -53 -4 -22 -9 -71 -12 -110 -7 -89 -7 -89 -19 -97 -6 -5 -6 -8 1
-8 11 0 12 -28 2 -45 -3 -6 -2 -19 2 -30 4 -11 4 -29 0 -40 -4 -11 -6 -48 -6
-82 1 -35 -2 -63 -6 -63 -3 0 -3 -12 0 -27 4 -16 7 -49 6 -75 0 -27 3 -48 8
-48 5 0 6 -5 2 -12 -11 -17 -12 -78 -1 -78 4 0 3 -10 -4 -21 -8 -16 -8 -20 1
-14 9 6 9 3 1 -13 -8 -14 -8 -23 -1 -27 8 -5 7 -11 -1 -21 -6 -8 -7 -14 -2
-14 5 0 9 -10 10 -22 0 -13 3 -52 8 -88 4 -36 9 -78 10 -95 5 -47 16 -99 20
-104 3 -2 0 -10 -6 -18 -7 -8 -8 -13 -2 -13 6 0 14 -19 18 -42 4 -24 9 -52 11
-63 29 -153 101 -390 181 -594 40 -100 54 -146 45 -149 -7 -2 -18 -9 -25 -15
-6 -7 -21 -13 -32 -14 -26 -2 -64 -10 -133 -30 -32 -8 -65 -16 -74 -16 -10 -1
-18 -5 -18 -9 0 -4 -8 -8 -17 -8 -31 -1 -57 -33 -92 -115 -19 -44 -37 -82 -40
-85 -3 -3 -8 -14 -9 -25 -2 -11 -13 -37 -24 -58 -10 -21 -21 -55 -24 -75 -2
-19 -6 -38 -9 -40 -2 -3 0 -12 5 -22 5 -10 6 -20 3 -24 -11 -11 -10 -46 1 -46
6 0 5 -4 -3 -9 -10 -7 -11 -13 -1 -31 7 -12 7 -20 2 -16 -12 7 -11 -42 1 -61
4 -6 1 -13 -5 -16 -10 -3 -10 -7 -1 -17 8 -9 9 -19 2 -32 -7 -13 -6 -18 3 -18
8 0 9 -3 3 -8 -12 -8 -13 -27 -3 -38 4 -4 3 -14 -4 -21 -9 -11 -9 -17 3 -24 8
-5 9 -9 4 -9 -12 0 -14 -39 -3 -55 4 -6 3 -17 -3 -25 -13 -21 -11 -32 4 -24 9
6 9 4 -1 -8 -9 -11 -10 -18 -2 -23 6 -3 7 -12 3 -18 -12 -20 -12 -37 0 -37 8
0 8 -3 2 -8 -14 -10 -17 -32 -5 -32 7 0 7 -6 1 -18 -7 -13 -7 -22 1 -30 8 -8
7 -13 -6 -18 -12 -5 -14 -9 -6 -14 12 -8 15 -33 7 -67 -3 -13 -1 -25 4 -28 5
-4 6 -11 3 -17 -9 -14 -11 -68 -3 -68 3 0 5 -10 4 -22 -2 -24 14 -72 46 -143
18 -40 41 -95 44 -105 0 -3 13 -32 29 -64 41 -89 72 -108 184 -112 40 -1 79
-5 87 -8 8 -3 17 -1 20 4 3 6 15 6 29 0 13 -5 26 -6 29 -3 3 3 59 -21 124 -52
125 -61 172 -69 243 -42 20 7 218 57 255 63 17 4 38 10 48 15 9 5 17 8 17 5 0
-3 15 0 33 5 17 6 46 13 62 16 17 3 35 9 40 13 14 11 18 4 126 -207 87 -171
119 -227 119 -208 0 6 3 6 8 -1 6 -9 27 -20 115 -58 61 -28 129 -46 140 -39 6
4 20 8 31 9 12 1 58 11 104 23 45 11 97 23 115 26 17 3 48 10 67 15 19 5 52
11 72 14 21 3 56 10 78 15 22 5 40 7 40 5 0 -3 10 0 21 7 15 8 19 8 15 0 -5
-8 0 -8 16 -2 13 5 43 11 68 15 105 14 148 18 195 21 28 2 50 4 50 5 0 1 16 3
35 5 103 10 130 14 139 19 5 4 12 2 16 -4 4 -6 11 -8 16 -4 10 6 182 16 282
17 26 0 47 5 47 9 0 5 7 5 17 0 9 -5 29 -6 44 -2 17 5 31 4 38 -3 7 -7 11 -7
11 -1 0 12 38 12 57 1 6 -4 15 -3 18 3 5 8 11 7 21 -1 9 -7 14 -8 14 -1 0 11
18 11 38 -1 6 -5 12 -4 12 1 0 5 7 9 15 9 8 0 15 -4 15 -9 0 -4 5 -8 11 -8 5
0 8 4 5 9 -8 12 27 8 36 -4 5 -6 8 -6 8 1 0 11 46 11 57 0 3 -2 15 -1 28 4 13
5 26 6 29 2 6 -6 32 -8 174 -13 39 -2 72 -7 72 -12 0 -4 5 -5 12 -1 15 10 60
10 75 1 7 -4 14 -3 18 3 4 6 12 7 18 3 6 -4 34 -8 62 -9 27 -2 50 -4 50 -4 0
-3 39 -7 135 -15 47 -4 88 -9 92 -11 3 -2 30 -6 60 -9 29 -3 62 -6 73 -9 11
-2 43 -7 70 -10 28 -4 64 -9 80 -13 17 -3 39 -7 50 -8 25 -2 135 -25 155 -33
8 -3 18 -4 23 -4 4 1 26 -3 50 -8 23 -6 55 -13 71 -16 16 -3 39 -9 50 -14 28
-10 100 -3 104 10 2 5 8 7 13 4 6 -3 15 -1 22 4 7 6 31 16 54 22 51 16 129 82
118 102 -5 7 -4 10 0 5 8 -6 128 226 137 263 2 8 9 21 16 28 6 7 12 21 12 30
0 19 34 45 44 34 4 -3 12 -7 19 -8 71 -11 98 -17 145 -30 29 -9 64 -17 75 -19
12 -1 69 -15 127 -30 58 -15 113 -29 123 -30 9 -2 21 -6 26 -9 19 -12 93 -9
100 3 5 7 11 12 15 11 16 -4 65 23 59 33 -3 6 -1 7 5 3 11 -7 70 20 83 37 3 4
30 10 59 13 30 3 57 7 61 10 4 2 19 0 34 -6 14 -5 24 -6 21 -1 -3 5 11 8 32 7
53 -3 115 12 130 31 6 9 12 14 12 10 0 -4 8 1 18 11 11 9 17 20 15 23 -1 4 4
10 13 13 11 4 14 13 11 27 -3 12 -3 18 0 15 6 -6 44 70 41 82 -1 4 8 27 19 52
18 38 31 70 38 90 1 3 5 13 9 23 5 9 6 30 4 47 -2 16 -1 27 4 24 4 -3 6 14 4
38 -2 24 2 49 8 57 6 8 6 12 1 9 -7 -4 -10 81 -10 250 1 167 -3 260 -10 264
-6 5 -6 8 2 8 7 0 10 13 7 36 -3 25 -1 33 7 28 8 -5 9 -3 3 7 -4 8 -8 70 -9
139 0 73 -5 133 -12 145 -6 11 -19 38 -28 60 -9 22 -27 60 -38 85 -12 25 -22
47 -22 50 -1 3 -9 21 -19 41 -20 40 -54 63 -112 78 -99 24 -211 52 -230 56
-32 7 -36 31 -14 78 64 140 147 380 184 532 13 55 27 114 31 130 5 17 9 37 10
45 1 8 5 33 9 55 14 69 15 79 21 125 3 25 7 59 10 75 14 96 25 301 25 480 1
105 -1 145 -16 350 -4 50 -7 105 -8 123 0 17 -3 32 -6 32 -3 0 -7 15 -8 33 -1
18 -4 44 -7 57 -3 14 -7 39 -10 55 -4 17 -13 59 -22 94 -8 36 -16 73 -18 82
-13 65 -86 291 -134 412 -33 84 -174 372 -195 397 -6 8 -18 29 -26 45 -28 60
-203 306 -305 429 -112 135 -269 296 -350 361 -27 22 -52 43 -55 46 -9 10
-135 114 -160 132 -113 81 -190 132 -249 168 -38 23 -72 48 -76 57 -3 8 -1 40
4 71 5 31 9 67 10 81 1 41 -19 139 -40 196 -28 75 -152 223 -186 224 -7 0 -13
4 -13 9 0 7 -108 61 -123 61 -3 0 -18 5 -34 11 -36 15 -52 18 -146 24 -43 2
-81 7 -86 9 -5 3 -11 3 -14 -1 -4 -3 -23 -7 -44 -9 -52 -4 -113 -12 -140 -19
-13 -3 -33 -7 -44 -10 -33 -7 -132 -35 -149 -42 -8 -3 -17 -7 -20 -8 -23 -6
-59 -18 -75 -25 -43 -18 -83 -28 -91 -21 -5 3 -22 31 -38 61 -16 30 -37 64
-47 75 -80 88 -136 133 -224 177 -114 57 -276 84 -405 67z m1339 -395 c-9 -11
-6 -16 12 -23 13 -5 19 -10 12 -10 -6 -1 -10 -10 -8 -20 4 -21 -5 -22 -53 -2
-24 10 -30 16 -20 22 11 7 11 9 0 9 -7 0 -11 4 -7 10 3 5 12 7 20 3 19 -7 47
15 38 30 -3 6 -1 7 6 3 9 -6 9 -11 0 -22z m111 -8 c0 -2 -7 -7 -16 -10 -8 -3
-12 -2 -9 4 6 10 25 14 25 6z m-40 -46 c0 -5 -4 -10 -10 -10 -5 0 -10 5 -10
10 0 6 5 10 10 10 6 0 10 -4 10 -10z m120 -21 c0 -5 5 -7 10 -4 6 3 10 -1 10
-10 0 -10 5 -13 13 -9 8 6 8 3 -1 -9 -13 -15 -15 -15 -35 3 -11 11 -26 20 -31
20 -6 0 -4 5 4 10 20 13 30 12 30 -1z m100 -63 c0 -2 -7 -7 -16 -10 -8 -3 -12
-2 -9 4 6 10 25 14 25 6z m-144 -4882 c-5 -14 -4 -15 9 -4 12 10 15 9 16 -6 0
-18 1 -18 8 0 7 18 8 18 14 3 3 -9 2 -17 -4 -17 -6 0 -8 -4 -4 -9 3 -5 0 -13
-6 -17 -8 -4 -9 -3 -5 5 5 8 0 10 -18 7 -14 -2 -27 1 -29 7 -3 7 -9 1 -15 -13
-7 -17 -11 -19 -11 -8 -1 9 -6 20 -13 24 -6 4 -8 3 -4 -4 3 -6 1 -14 -6 -18
-7 -4 -10 -4 -6 1 4 4 2 15 -5 23 -9 13 -9 14 1 8 7 -4 12 -2 12 5 0 8 5 8 18
-2 9 -7 13 -9 9 -4 -4 5 3 15 15 22 30 16 31 16 24 -3z m730 -420 c13 -15 24
-29 24 -31 0 -5 -40 3 -64 13 -14 5 -17 4 -12 -4 4 -7 2 -12 -3 -12 -6 0 -11
5 -11 11 0 5 -4 7 -10 4 -6 -3 -7 1 -4 10 4 8 1 22 -6 29 -9 12 -5 14 26 11
25 -2 44 -12 60 -31z m133 -71 c-1 -29 -4 -51 -8 -49 -3 2 -7 -7 -7 -20 -1
-15 2 -21 10 -17 8 5 8 3 0 -8 -7 -8 -10 -26 -9 -41 4 -33 -17 -28 -33 8 -9
18 -9 24 1 25 9 0 9 2 0 6 -7 2 -13 16 -13 30 0 13 -7 31 -15 39 -17 18 -20
34 -4 34 5 0 7 5 4 10 -3 6 1 10 10 10 9 0 14 4 10 9 -5 9 14 17 42 17 8 1 12
-17 12 -53z m-1081 18 c3 -17 0 -21 -9 -15 -9 5 -11 2 -6 -9 3 -10 2 -17 -4
-17 -6 0 -7 -6 -3 -12 6 -10 5 -10 -8 -1 -8 7 -18 10 -22 6 -13 -14 -1 44 13
61 18 21 35 15 39 -13z m968 -23 c5 -7 2 -8 -7 -4 -8 4 -5 0 5 -8 18 -15 18
-16 2 -16 -15 0 -46 22 -46 32 0 9 40 5 46 -4z m-1146 -348 c0 -5 -5 -10 -11
-10 -5 0 -7 5 -4 10 3 6 8 10 11 10 2 0 4 -4 4 -10z m70 -6 c0 4 7 1 15 -8 25
-25 17 -34 -24 -26 -25 4 -44 3 -52 -4 -9 -8 -10 -8 -5 2 5 7 1 12 -11 13 -10
0 -3 5 15 10 17 5 32 14 32 21 0 7 5 6 15 -2 8 -7 15 -9 15 -6z m1175 -34 c3
-6 -1 -13 -10 -16 -9 -4 -14 -13 -11 -21 3 -8 1 -11 -4 -8 -6 3 -13 -1 -17
-11 -6 -16 -7 -15 -20 2 -15 20 -18 48 -4 40 5 -3 14 1 21 9 14 17 36 20 45 5z
m-1865 -31 c0 -5 -11 -8 -24 -7 -14 1 -22 6 -20 10 3 5 10 5 16 2 8 -5 9 -1 4
11 -5 15 -4 16 9 5 8 -7 15 -16 15 -21z m794 15 c3 -8 2 -12 -4 -9 -6 3 -10
10 -10 16 0 14 7 11 14 -7z m220 -15 c-3 -5 -1 -9 4 -9 5 0 9 -6 9 -14 0 -13
-26 -11 -28 3 0 3 -2 14 -4 23 -2 11 2 15 11 11 8 -3 11 -9 8 -14z m-1576 -8
c3 -8 0 -11 -5 -8 -5 3 -9 -3 -9 -13 0 -10 3 -17 6 -15 3 2 11 -8 17 -22 7
-14 10 -23 6 -20 -3 4 -14 -3 -24 -14 -12 -14 -26 -20 -39 -16 -11 3 -22 1
-25 -3 -3 -5 -13 -7 -23 -6 -9 2 -22 -4 -29 -13 -9 -11 -12 -12 -13 -3 0 7 -4
11 -9 7 -5 -3 -16 1 -24 9 -8 8 -17 13 -20 10 -5 -5 -18 37 -22 69 -1 14 33
45 43 39 8 -6 52 -1 49 6 -3 4 22 7 56 7 42 0 62 -4 65 -14z m1095 6 c-4 -7 0
-7 10 2 16 12 22 8 18 -12 -1 -5 3 -6 8 -3 5 4 12 2 16 -4 3 -5 11 -10 16 -10
6 0 8 4 4 9 -3 5 -1 12 5 16 5 3 10 1 10 -5 0 -6 4 -9 9 -6 5 3 12 -1 15 -10
3 -9 2 -12 -5 -8 -6 3 -19 -3 -30 -15 -16 -17 -17 -21 -4 -21 8 0 15 -4 15
-10 0 -5 9 -10 21 -10 11 0 19 -5 17 -12 -5 -13 -97 -18 -105 -5 -2 4 -11 0
-19 -8 -9 -8 -19 -13 -24 -10 -5 3 -10 -3 -12 -12 -3 -13 -5 -11 -9 8 -5 23
-3 26 15 21 19 -5 19 -3 -4 15 -15 13 -36 20 -57 18 -38 -2 -38 -2 -17 20 14
14 14 18 3 28 -8 7 -13 11 -10 10 2 -1 9 4 17 11 17 18 108 20 97 3z m-1583
-41 c0 6 7 11 15 11 8 0 15 -3 15 -7 0 -4 11 -5 25 -2 20 3 24 1 19 -12 -3 -9
-11 -13 -16 -10 -13 8 11 -36 29 -54 14 -14 8 -36 -8 -27 -5 4 -9 1 -9 -5 0
-6 -4 -9 -9 -5 -5 3 -13 1 -16 -5 -4 -7 -13 -3 -25 10 -9 11 -24 20 -32 20 -9
0 -21 7 -28 15 -7 8 -9 15 -5 15 4 0 2 7 -5 15 -13 15 -5 39 11 30 5 -4 12 1
15 10 6 13 8 14 15 3 5 -7 9 -8 9 -2z m986 5 c11 9 14 8 14 -7 0 -14 3 -15 8
-6 13 19 42 3 42 -22 0 -12 -6 -28 -12 -35 -11 -11 -10 -12 0 -6 11 6 12 3 3
-14 -7 -11 -14 -21 -17 -21 -3 0 -2 5 1 10 3 6 -3 10 -15 10 -14 0 -19 4 -14
13 5 8 2 8 -9 -2 -17 -13 -23 -6 -18 22 0 4 -4 7 -9 7 -6 0 -9 12 -6 28 6 37
7 39 13 24 4 -10 8 -10 19 -1z m786 -68 c12 -15 11 -15 -9 -5 -16 9 -22 9 -25
0 -3 -8 -6 -7 -10 3 -8 21 27 22 44 2z m73 7 c-3 -5 1 -10 10 -10 26 0 68 -32
54 -41 -7 -4 -22 -3 -32 3 -14 7 -17 7 -13 -1 4 -6 3 -11 -3 -11 -15 0 -34 39
-27 56 3 8 8 14 11 14 4 0 3 -4 0 -10z m365 -13 c0 -5 8 -3 17 4 10 9 14 9 10
2 -5 -8 6 -16 35 -24 54 -14 60 -18 51 -32 -9 -15 -10 -67 -2 -67 4 0 9 -7 13
-15 4 -11 0 -14 -17 -11 -12 3 -24 5 -27 6 -3 1 -15 1 -27 0 -13 -1 -23 4 -23
11 0 8 -3 9 -14 0 -10 -8 -20 -8 -40 2 -14 8 -24 17 -21 20 3 4 2 5 -2 2 -3
-3 -13 1 -21 8 -11 8 -13 8 -9 0 5 -8 1 -8 -16 0 -13 6 -24 17 -24 24 0 6 4
10 9 7 4 -3 8 3 8 12 0 10 3 15 6 11 3 -3 18 7 33 22 26 27 61 37 61 18z
m-880 -77 c8 5 18 6 23 3 5 -3 27 -5 48 -5 22 1 37 -3 34 -8 -3 -5 0 -12 6
-16 8 -4 9 -3 5 4 -8 13 36 27 59 18 8 -3 15 0 15 7 0 8 3 8 8 2 4 -6 23 -10
42 -9 23 0 41 -6 52 -19 9 -10 21 -16 27 -13 5 4 13 1 17 -5 4 -8 9 -7 15 2 7
11 9 11 9 1 0 -10 4 -10 16 2 18 18 34 21 34 6 0 -5 7 -10 15 -10 17 0 18 -2
9 -24 -3 -9 -11 -13 -17 -9 -6 4 -8 -3 -3 -20 3 -14 2 -29 -4 -32 -5 -3 -10
-1 -10 4 0 6 -7 11 -16 11 -9 0 -12 5 -8 12 4 7 3 8 -5 4 -6 -4 -9 -12 -6 -17
4 -5 -6 -9 -20 -9 -18 0 -24 4 -20 13 4 6 -1 3 -9 -7 -12 -15 -16 -16 -17 -5
0 10 -2 10 -6 2 -3 -9 -10 -10 -24 -3 -13 8 -19 7 -19 0 0 -8 -6 -8 -20 0 -11
6 -20 8 -20 4 0 -3 -6 -1 -13 5 -8 6 -17 8 -21 4 -13 -13 -36 -11 -36 3 0 9
-4 12 -10 9 -5 -3 -10 -1 -10 6 0 7 -7 4 -16 -7 -8 -10 -13 -13 -9 -7 4 9 -2
11 -25 7 -16 -4 -30 -3 -30 2 0 5 -21 10 -47 12 -55 3 -52 1 -55 35 -1 15 -6
27 -11 27 -4 0 -6 4 -2 10 3 5 13 6 22 3 11 -5 14 -3 8 6 -6 10 -3 11 12 3 11
-6 25 -7 33 -2z m-2835 -393 c11 -13 28 -26 38 -30 9 -3 17 -14 17 -23 0 -10
-5 -14 -16 -10 -8 3 -13 2 -10 -3 9 -13 -73 -31 -99 -21 -12 5 -30 8 -40 7
-10 -1 -20 4 -22 11 -3 7 4 12 16 12 19 0 26 10 22 33 -1 5 3 6 8 2 6 -3 13 6
17 20 8 32 41 33 69 2z"/>
</g>
</svg>
